<mxfile host="app.diagrams.net" modified="2023-07-27T06:51:38.864Z" agent="Mozilla/5.0 (Macintosh; Intel Mac OS X 10_15_7) AppleWebKit/537.36 (KHTML, like Gecko) Chrome/114.0.0.0 Safari/537.36" version="21.6.3" etag="2YknyIHNty5Lr-OSLzI1" type="github">
  <diagram id="CwU8dhpzYnV2hqpYqISQ" name="Page-1">
    <mxGraphModel dx="1590" dy="447" grid="1" gridSize="10" guides="1" tooltips="1" connect="1" arrows="1" fold="1" page="1" pageScale="1" pageWidth="827" pageHeight="1169" background="#ffffff" math="0" shadow="0">
      <root>
        <mxCell id="0" />
        <mxCell id="1" parent="0" />
        <mxCell id="4" value="Multi Agent Path Finding in 2023" style="text;html=1;strokeColor=none;fillColor=none;align=center;verticalAlign=middle;whiteSpace=wrap;rounded=0;comic=0;fontFamily=Verdana;fontSize=16;fontStyle=0" parent="1" vertex="1">
          <mxGeometry x="273.5" y="30" width="280" height="30" as="geometry" />
        </mxCell>
        <mxCell id="5" value="Legends" style="text;html=1;strokeColor=none;fillColor=none;align=right;verticalAlign=middle;whiteSpace=wrap;rounded=0;comic=0;fontFamily=Verdana;fontSize=12;" parent="1" vertex="1">
          <mxGeometry x="720" y="20" width="80" height="20" as="geometry" />
        </mxCell>
        <mxCell id="7" value="Subcategory" style="rounded=1;whiteSpace=wrap;html=1;comic=0;fontFamily=Verdana;fontSize=10;fillColor=#FFFF66;" parent="1" vertex="1">
          <mxGeometry x="680" y="70" width="120" height="20" as="geometry" />
        </mxCell>
        <mxCell id="9" value="Algorithm Category" style="rounded=1;whiteSpace=wrap;html=1;comic=0;fontFamily=Verdana;fontSize=10;fillColor=#FFCC99;" parent="1" vertex="1">
          <mxGeometry x="680" y="100" width="120" height="20" as="geometry" />
        </mxCell>
        <mxCell id="10" value="Key idea" style="rounded=1;whiteSpace=wrap;html=1;comic=0;fontFamily=Verdana;fontSize=10;fillColor=#CCCCCC;" parent="1" vertex="1">
          <mxGeometry x="680" y="130" width="120" height="20" as="geometry" />
        </mxCell>
        <mxCell id="15" value="" style="curved=1;endArrow=none;html=1;fontFamily=Verdana;fontSize=10;exitX=0.5;exitY=1;entryX=0.5;entryY=0;endFill=0;" parent="1" target="17" edge="1">
          <mxGeometry width="50" height="50" relative="1" as="geometry">
            <mxPoint x="390" y="130" as="sourcePoint" />
            <mxPoint x="360" y="190" as="targetPoint" />
            <Array as="points">
              <mxPoint x="390" y="140" />
              <mxPoint x="414" y="170" />
            </Array>
          </mxGeometry>
        </mxCell>
        <mxCell id="17" value="Centralised Graph Search Based" style="rounded=1;whiteSpace=wrap;html=1;comic=0;fontFamily=Verdana;fontSize=10;fillColor=#fafafa;" parent="1" vertex="1">
          <mxGeometry x="348.5" y="180" width="131.5" height="30" as="geometry" />
        </mxCell>
        <mxCell id="18" value="Optimal Algorithms" style="rounded=1;whiteSpace=wrap;html=1;comic=0;fontFamily=Verdana;fontSize=10;fillColor=#FFFF66;" parent="1" vertex="1">
          <mxGeometry x="348.5" y="215" width="130" height="20" as="geometry" />
        </mxCell>
        <mxCell id="20" value="Bounded Suboptimal" style="rounded=1;whiteSpace=wrap;html=1;comic=0;fontFamily=Verdana;fontSize=10;fillColor=#FFFF66;" parent="1" vertex="1">
          <mxGeometry x="348.5" y="240" width="130" height="20" as="geometry" />
        </mxCell>
        <mxCell id="52" value="" style="curved=1;endArrow=none;html=1;fontFamily=Verdana;fontSize=10;entryX=0.5;entryY=0;endFill=0;exitX=0.5;exitY=1;exitDx=0;exitDy=0;" parent="1" source="3GfHXLE6OEoNehkDiDL5-192" edge="1">
          <mxGeometry width="50" height="50" relative="1" as="geometry">
            <mxPoint x="420" y="290" as="sourcePoint" />
            <mxPoint x="478.5" y="380" as="targetPoint" />
            <Array as="points">
              <mxPoint x="410" y="300" />
              <mxPoint x="480" y="340" />
            </Array>
          </mxGeometry>
        </mxCell>
        <mxCell id="ac9188710934de2-52" value="" style="shape=image;html=1;verticalAlign=top;verticalLabelPosition=bottom;labelBackgroundColor=#ffffff;imageAspect=0;aspect=fixed;image=https://cdn1.iconfinder.com/data/icons/logotypes/32/github-128.png;rounded=1;glass=0;comic=0;strokeColor=#000000;fillColor=#FFFFFF;fontFamily=Verdana;fontSize=14;align=center;" parent="1" vertex="1">
          <mxGeometry x="20" y="40" width="20" height="20" as="geometry" />
        </mxCell>
        <mxCell id="ac9188710934de2-55" value="indraneelpatil/mapf-roadmap" style="text;html=1;strokeColor=none;fillColor=none;align=left;verticalAlign=middle;whiteSpace=wrap;rounded=0;comic=0;fontFamily=Verdana;fontSize=8;" parent="1" vertex="1">
          <mxGeometry x="40" y="42.5" width="260" height="15" as="geometry" />
        </mxCell>
        <mxCell id="3GfHXLE6OEoNehkDiDL5-192" value="Suboptimal" style="rounded=1;whiteSpace=wrap;html=1;comic=0;fontFamily=Verdana;fontSize=10;fillColor=#FFFF66;" vertex="1" parent="1">
          <mxGeometry x="349" y="265" width="130" height="20" as="geometry" />
        </mxCell>
        <mxCell id="3GfHXLE6OEoNehkDiDL5-195" value="" style="curved=1;endArrow=none;html=1;fontFamily=Verdana;fontSize=10;exitX=0;exitY=0.5;entryX=1;entryY=0.5;endFill=0;exitDx=0;exitDy=0;" edge="1" parent="1" source="3GfHXLE6OEoNehkDiDL5-196">
          <mxGeometry width="50" height="50" relative="1" as="geometry">
            <mxPoint x="589.5" y="247" as="sourcePoint" />
            <mxPoint x="478.5" y="225" as="targetPoint" />
            <Array as="points">
              <mxPoint x="559.5" y="247" />
              <mxPoint x="500" y="240" />
              <mxPoint x="519.5" y="215" />
            </Array>
          </mxGeometry>
        </mxCell>
        <mxCell id="3GfHXLE6OEoNehkDiDL5-196" value="A* methods" style="rounded=1;whiteSpace=wrap;html=1;comic=0;fontFamily=Verdana;fontSize=10;fillColor=#ffcc99;strokeColor=#000000;" vertex="1" parent="1">
          <mxGeometry x="540" y="230.5" width="120" height="20" as="geometry" />
        </mxCell>
        <mxCell id="3GfHXLE6OEoNehkDiDL5-197" value="Category" style="rounded=1;whiteSpace=wrap;html=1;comic=0;fontFamily=Verdana;fontSize=10;" vertex="1" parent="1">
          <mxGeometry x="680" y="40" width="120" height="20" as="geometry" />
        </mxCell>
        <mxCell id="3GfHXLE6OEoNehkDiDL5-198" value="" style="curved=1;endArrow=none;html=1;fontFamily=Verdana;fontSize=8;entryX=1;entryY=0.5;endFill=0;dashed=1;" edge="1" parent="1">
          <mxGeometry width="50" height="50" relative="1" as="geometry">
            <mxPoint x="710" y="230" as="sourcePoint" />
            <mxPoint x="660" y="235" as="targetPoint" />
            <Array as="points">
              <mxPoint x="690" y="240" />
            </Array>
          </mxGeometry>
        </mxCell>
        <mxCell id="3GfHXLE6OEoNehkDiDL5-199" value="Joint State A*" style="text;html=1;strokeColor=none;fillColor=none;align=right;verticalAlign=middle;whiteSpace=wrap;rounded=0;comic=0;fontFamily=Verdana;fontSize=8;" vertex="1" parent="1">
          <mxGeometry x="510" y="218" width="260" height="15" as="geometry" />
        </mxCell>
        <mxCell id="3GfHXLE6OEoNehkDiDL5-200" value="" style="curved=1;endArrow=none;html=1;fontFamily=Verdana;fontSize=8;entryX=1;entryY=0.5;endFill=0;dashed=1;" edge="1" parent="1">
          <mxGeometry width="50" height="50" relative="1" as="geometry">
            <mxPoint x="710" y="248" as="sourcePoint" />
            <mxPoint x="660" y="243" as="targetPoint" />
            <Array as="points">
              <mxPoint x="690" y="248" />
            </Array>
          </mxGeometry>
        </mxCell>
        <mxCell id="3GfHXLE6OEoNehkDiDL5-201" value="Partial Expansion EPEA*" style="text;html=1;strokeColor=none;fillColor=none;align=right;verticalAlign=middle;whiteSpace=wrap;rounded=0;comic=0;fontFamily=Verdana;fontSize=8;" vertex="1" parent="1">
          <mxGeometry x="695" y="240" width="90" height="13" as="geometry" />
        </mxCell>
        <mxCell id="3GfHXLE6OEoNehkDiDL5-202" value="" style="curved=1;endArrow=none;html=1;fontFamily=Verdana;fontSize=8;entryX=1;entryY=0.5;endFill=0;dashed=1;" edge="1" parent="1">
          <mxGeometry width="50" height="50" relative="1" as="geometry">
            <mxPoint x="710" y="270" as="sourcePoint" />
            <mxPoint x="660" y="252" as="targetPoint" />
            <Array as="points">
              <mxPoint x="690" y="270" />
            </Array>
          </mxGeometry>
        </mxCell>
        <mxCell id="3GfHXLE6OEoNehkDiDL5-203" value="Subdimensional expansion M*" style="text;html=1;strokeColor=none;fillColor=none;align=right;verticalAlign=middle;whiteSpace=wrap;rounded=0;comic=0;fontFamily=Verdana;fontSize=8;" vertex="1" parent="1">
          <mxGeometry x="695" y="260" width="90" height="13" as="geometry" />
        </mxCell>
        <mxCell id="3GfHXLE6OEoNehkDiDL5-204" value="CBS Methods" style="rounded=1;whiteSpace=wrap;html=1;comic=0;fontFamily=Verdana;fontSize=10;fillColor=#ffcc99;strokeColor=#000000;" vertex="1" parent="1">
          <mxGeometry x="180" y="200" width="93.5" height="30" as="geometry" />
        </mxCell>
        <mxCell id="3GfHXLE6OEoNehkDiDL5-205" value="" style="curved=1;endArrow=none;html=1;fontFamily=Verdana;fontSize=10;exitX=0;exitY=0.5;entryX=1;entryY=0.5;endFill=0;exitDx=0;exitDy=0;entryDx=0;entryDy=0;" edge="1" parent="1" source="18" target="3GfHXLE6OEoNehkDiDL5-204">
          <mxGeometry width="50" height="50" relative="1" as="geometry">
            <mxPoint x="335" y="227" as="sourcePoint" />
            <mxPoint x="273.5" y="211" as="targetPoint" />
            <Array as="points">
              <mxPoint x="354.5" y="233" />
              <mxPoint x="295" y="226" />
              <mxPoint x="314.5" y="201" />
            </Array>
          </mxGeometry>
        </mxCell>
        <mxCell id="3GfHXLE6OEoNehkDiDL5-206" value="" style="curved=1;endArrow=none;html=1;fontFamily=Verdana;fontSize=8;endFill=0;dashed=1;exitX=0;exitY=0.5;" edge="1" parent="1">
          <mxGeometry width="50" height="50" relative="1" as="geometry">
            <mxPoint x="180" y="210" as="sourcePoint" />
            <mxPoint x="130" y="210" as="targetPoint" />
            <Array as="points">
              <mxPoint x="150" y="200" />
            </Array>
          </mxGeometry>
        </mxCell>
        <mxCell id="3GfHXLE6OEoNehkDiDL5-207" value="Conflict prioritization ICBS" style="text;html=1;strokeColor=none;fillColor=none;align=right;verticalAlign=middle;whiteSpace=wrap;rounded=0;comic=0;fontFamily=Verdana;fontSize=8;" vertex="1" parent="1">
          <mxGeometry x="30" y="180" width="90" height="17" as="geometry" />
        </mxCell>
        <mxCell id="3GfHXLE6OEoNehkDiDL5-208" value="" style="curved=1;endArrow=none;html=1;fontFamily=Verdana;fontSize=8;endFill=0;dashed=1;exitX=0;exitY=0.5;exitDx=0;exitDy=0;" edge="1" parent="1" source="3GfHXLE6OEoNehkDiDL5-204">
          <mxGeometry width="50" height="50" relative="1" as="geometry">
            <mxPoint x="180" y="225" as="sourcePoint" />
            <mxPoint x="130" y="225" as="targetPoint" />
            <Array as="points">
              <mxPoint x="150" y="215" />
            </Array>
          </mxGeometry>
        </mxCell>
        <mxCell id="3GfHXLE6OEoNehkDiDL5-209" value="Symmetry breaking ICBS+RTC" style="text;html=1;strokeColor=none;fillColor=none;align=right;verticalAlign=middle;whiteSpace=wrap;rounded=0;comic=0;fontFamily=Verdana;fontSize=8;" vertex="1" parent="1">
          <mxGeometry x="14" y="201.5" width="110" height="15" as="geometry" />
        </mxCell>
        <mxCell id="3GfHXLE6OEoNehkDiDL5-210" value="" style="curved=1;endArrow=none;html=1;fontFamily=Verdana;fontSize=8;entryX=1;entryY=0.5;endFill=0;dashed=1;" edge="1" parent="1">
          <mxGeometry width="50" height="50" relative="1" as="geometry">
            <mxPoint x="710" y="230" as="sourcePoint" />
            <mxPoint x="660" y="235" as="targetPoint" />
            <Array as="points">
              <mxPoint x="690" y="240" />
            </Array>
          </mxGeometry>
        </mxCell>
        <mxCell id="3GfHXLE6OEoNehkDiDL5-212" value="WDG Heuristics CBSH2+RTC" style="text;html=1;strokeColor=none;fillColor=none;align=right;verticalAlign=middle;whiteSpace=wrap;rounded=0;comic=0;fontFamily=Verdana;fontSize=8;" vertex="1" parent="1">
          <mxGeometry x="14" y="225" width="110" height="15" as="geometry" />
        </mxCell>
        <mxCell id="3GfHXLE6OEoNehkDiDL5-214" value="" style="curved=1;endArrow=none;html=1;fontFamily=Verdana;fontSize=8;endFill=0;dashed=1;exitX=0;exitY=0.25;exitDx=0;exitDy=0;entryX=1;entryY=0.5;entryDx=0;entryDy=0;" edge="1" parent="1" source="3GfHXLE6OEoNehkDiDL5-204" target="3GfHXLE6OEoNehkDiDL5-207">
          <mxGeometry width="50" height="50" relative="1" as="geometry">
            <mxPoint x="180" y="197" as="sourcePoint" />
            <mxPoint x="130" y="197" as="targetPoint" />
            <Array as="points">
              <mxPoint x="150" y="187" />
            </Array>
          </mxGeometry>
        </mxCell>
        <mxCell id="3GfHXLE6OEoNehkDiDL5-215" value="CBS Methods" style="rounded=1;whiteSpace=wrap;html=1;comic=0;fontFamily=Verdana;fontSize=10;fillColor=#ffcc99;strokeColor=#000000;" vertex="1" parent="1">
          <mxGeometry x="206.5" y="255" width="93.5" height="30" as="geometry" />
        </mxCell>
        <mxCell id="3GfHXLE6OEoNehkDiDL5-216" value="" style="curved=1;endArrow=none;html=1;fontFamily=Verdana;fontSize=10;exitX=0;exitY=0.5;entryX=1;entryY=0.5;endFill=0;exitDx=0;exitDy=0;entryDx=0;entryDy=0;" edge="1" parent="1" target="3GfHXLE6OEoNehkDiDL5-215">
          <mxGeometry width="50" height="50" relative="1" as="geometry">
            <mxPoint x="348.5" y="249" as="sourcePoint" />
            <mxPoint x="273.5" y="239" as="targetPoint" />
            <Array as="points">
              <mxPoint x="330" y="250" />
            </Array>
          </mxGeometry>
        </mxCell>
        <mxCell id="3GfHXLE6OEoNehkDiDL5-217" value="" style="curved=1;endArrow=none;html=1;fontFamily=Verdana;fontSize=8;endFill=0;dashed=1;exitX=0;exitY=0.25;exitDx=0;exitDy=0;" edge="1" parent="1" source="3GfHXLE6OEoNehkDiDL5-215">
          <mxGeometry width="50" height="50" relative="1" as="geometry">
            <mxPoint x="200" y="256" as="sourcePoint" />
            <mxPoint x="140" y="256" as="targetPoint" />
            <Array as="points" />
          </mxGeometry>
        </mxCell>
        <mxCell id="3GfHXLE6OEoNehkDiDL5-218" value="Both level focal search BCBS" style="text;html=1;strokeColor=none;fillColor=none;align=right;verticalAlign=middle;whiteSpace=wrap;rounded=0;comic=0;fontFamily=Verdana;fontSize=8;" vertex="1" parent="1">
          <mxGeometry x="30" y="253" width="110" height="15" as="geometry" />
        </mxCell>
        <mxCell id="3GfHXLE6OEoNehkDiDL5-219" value="" style="curved=1;endArrow=none;html=1;fontFamily=Verdana;fontSize=8;endFill=0;dashed=1;exitX=0;exitY=0.75;exitDx=0;exitDy=0;" edge="1" parent="1" source="3GfHXLE6OEoNehkDiDL5-215">
          <mxGeometry width="50" height="50" relative="1" as="geometry">
            <mxPoint x="184" y="284.2" as="sourcePoint" />
            <mxPoint x="150" y="280" as="targetPoint" />
            <Array as="points" />
          </mxGeometry>
        </mxCell>
        <mxCell id="3GfHXLE6OEoNehkDiDL5-220" value="Modified low level focal search ECBS" style="text;html=1;strokeColor=none;fillColor=none;align=right;verticalAlign=middle;whiteSpace=wrap;rounded=0;comic=0;fontFamily=Verdana;fontSize=8;" vertex="1" parent="1">
          <mxGeometry x="40" y="273" width="110" height="15" as="geometry" />
        </mxCell>
        <mxCell id="3GfHXLE6OEoNehkDiDL5-221" value="" style="curved=1;endArrow=none;html=1;fontFamily=Verdana;fontSize=8;endFill=0;dashed=1;exitX=0;exitY=1;exitDx=0;exitDy=0;" edge="1" parent="1" source="3GfHXLE6OEoNehkDiDL5-215">
          <mxGeometry width="50" height="50" relative="1" as="geometry">
            <mxPoint x="210" y="276" as="sourcePoint" />
            <mxPoint x="160" y="300" as="targetPoint" />
            <Array as="points">
              <mxPoint x="180" y="300" />
            </Array>
          </mxGeometry>
        </mxCell>
        <mxCell id="3GfHXLE6OEoNehkDiDL5-222" value="Learned Heuristics EECBS" style="text;html=1;strokeColor=none;fillColor=none;align=right;verticalAlign=middle;whiteSpace=wrap;rounded=0;comic=0;fontFamily=Verdana;fontSize=8;" vertex="1" parent="1">
          <mxGeometry x="49" y="295" width="110" height="15" as="geometry" />
        </mxCell>
        <mxCell id="3GfHXLE6OEoNehkDiDL5-223" value="A* methods" style="rounded=1;whiteSpace=wrap;html=1;comic=0;fontFamily=Verdana;fontSize=10;fillColor=#ffcc99;strokeColor=#000000;" vertex="1" parent="1">
          <mxGeometry x="540" y="285" width="120" height="20" as="geometry" />
        </mxCell>
        <mxCell id="3GfHXLE6OEoNehkDiDL5-224" value="" style="curved=1;endArrow=none;html=1;fontFamily=Verdana;fontSize=10;exitX=0;exitY=0.5;entryX=1;entryY=0.5;endFill=0;exitDx=0;exitDy=0;" edge="1" parent="1">
          <mxGeometry width="50" height="50" relative="1" as="geometry">
            <mxPoint x="540" y="294" as="sourcePoint" />
            <mxPoint x="478.5" y="278" as="targetPoint" />
            <Array as="points">
              <mxPoint x="500" y="293" />
              <mxPoint x="519.5" y="268" />
            </Array>
          </mxGeometry>
        </mxCell>
        <mxCell id="3GfHXLE6OEoNehkDiDL5-226" value="" style="curved=1;endArrow=none;html=1;fontFamily=Verdana;fontSize=8;entryX=1;entryY=0.5;endFill=0;dashed=1;" edge="1" parent="1">
          <mxGeometry width="50" height="50" relative="1" as="geometry">
            <mxPoint x="713" y="290" as="sourcePoint" />
            <mxPoint x="663" y="289" as="targetPoint" />
            <Array as="points">
              <mxPoint x="693" y="289" />
            </Array>
          </mxGeometry>
        </mxCell>
        <mxCell id="3GfHXLE6OEoNehkDiDL5-227" value="Prioritized A*" style="text;html=1;strokeColor=none;fillColor=none;align=right;verticalAlign=middle;whiteSpace=wrap;rounded=0;comic=0;fontFamily=Verdana;fontSize=8;" vertex="1" parent="1">
          <mxGeometry x="720" y="285" width="60" height="15" as="geometry" />
        </mxCell>
        <mxCell id="3GfHXLE6OEoNehkDiDL5-228" value="" style="curved=1;endArrow=none;html=1;fontFamily=Verdana;fontSize=8;endFill=0;dashed=1;exitX=0;exitY=1;exitDx=0;exitDy=0;" edge="1" parent="1">
          <mxGeometry width="50" height="50" relative="1" as="geometry">
            <mxPoint x="217" y="285" as="sourcePoint" />
            <mxPoint x="170" y="320" as="targetPoint" />
            <Array as="points">
              <mxPoint x="190" y="310" />
            </Array>
          </mxGeometry>
        </mxCell>
        <mxCell id="3GfHXLE6OEoNehkDiDL5-229" value="ECBS with highways" style="text;html=1;strokeColor=none;fillColor=none;align=right;verticalAlign=middle;whiteSpace=wrap;rounded=0;comic=0;fontFamily=Verdana;fontSize=8;" vertex="1" parent="1">
          <mxGeometry x="59" y="315" width="110" height="15" as="geometry" />
        </mxCell>
        <mxCell id="3GfHXLE6OEoNehkDiDL5-230" value="Windowed Hierarchical Cooperative A*" style="text;html=1;strokeColor=none;fillColor=none;align=right;verticalAlign=middle;whiteSpace=wrap;rounded=0;comic=0;fontFamily=Verdana;fontSize=8;" vertex="1" parent="1">
          <mxGeometry x="700" y="307" width="80" height="15" as="geometry" />
        </mxCell>
        <mxCell id="3GfHXLE6OEoNehkDiDL5-235" value="" style="curved=1;endArrow=none;html=1;fontFamily=Verdana;fontSize=8;entryX=1;entryY=0.75;endFill=0;dashed=1;entryDx=0;entryDy=0;" edge="1" parent="1" target="3GfHXLE6OEoNehkDiDL5-223">
          <mxGeometry width="50" height="50" relative="1" as="geometry">
            <mxPoint x="720" y="310" as="sourcePoint" />
            <mxPoint x="670" y="305" as="targetPoint" />
            <Array as="points">
              <mxPoint x="690" y="310" />
            </Array>
          </mxGeometry>
        </mxCell>
        <mxCell id="3GfHXLE6OEoNehkDiDL5-236" value="CBS Methods" style="rounded=1;whiteSpace=wrap;html=1;comic=0;fontFamily=Verdana;fontSize=10;fillColor=#ffcc99;strokeColor=#000000;" vertex="1" parent="1">
          <mxGeometry x="220" y="315" width="93.5" height="30" as="geometry" />
        </mxCell>
        <mxCell id="3GfHXLE6OEoNehkDiDL5-238" value="" style="curved=1;endArrow=none;html=1;fontFamily=Verdana;fontSize=10;exitX=0;exitY=0.75;entryX=1;entryY=0.5;endFill=0;exitDx=0;exitDy=0;entryDx=0;entryDy=0;" edge="1" parent="1" source="3GfHXLE6OEoNehkDiDL5-192" target="3GfHXLE6OEoNehkDiDL5-236">
          <mxGeometry width="50" height="50" relative="1" as="geometry">
            <mxPoint x="372" y="305" as="sourcePoint" />
            <mxPoint x="323.5" y="326" as="targetPoint" />
            <Array as="points">
              <mxPoint x="324" y="290" />
            </Array>
          </mxGeometry>
        </mxCell>
        <mxCell id="3GfHXLE6OEoNehkDiDL5-239" value="" style="curved=1;endArrow=none;html=1;fontFamily=Verdana;fontSize=8;endFill=0;dashed=1;exitX=0;exitY=0.75;exitDx=0;exitDy=0;" edge="1" parent="1">
          <mxGeometry width="50" height="50" relative="1" as="geometry">
            <mxPoint x="220" y="330" as="sourcePoint" />
            <mxPoint x="160" y="340" as="targetPoint" />
            <Array as="points" />
          </mxGeometry>
        </mxCell>
        <mxCell id="3GfHXLE6OEoNehkDiDL5-240" value="Priority based Search PBS" style="text;html=1;strokeColor=none;fillColor=none;align=right;verticalAlign=middle;whiteSpace=wrap;rounded=0;comic=0;fontFamily=Verdana;fontSize=8;" vertex="1" parent="1">
          <mxGeometry x="49" y="340" width="110" height="15" as="geometry" />
        </mxCell>
        <mxCell id="3GfHXLE6OEoNehkDiDL5-243" value="" style="curved=1;endArrow=none;html=1;fontFamily=Verdana;fontSize=10;endFill=0;" edge="1" parent="1">
          <mxGeometry width="50" height="50" relative="1" as="geometry">
            <mxPoint x="550" y="350" as="sourcePoint" />
            <mxPoint x="480" y="280" as="targetPoint" />
            <Array as="points">
              <mxPoint x="510" y="350" />
            </Array>
          </mxGeometry>
        </mxCell>
        <mxCell id="3GfHXLE6OEoNehkDiDL5-244" value="Large Neighborhood Search" style="rounded=1;whiteSpace=wrap;html=1;comic=0;fontFamily=Verdana;fontSize=10;fillColor=#ffcc99;strokeColor=#000000;" vertex="1" parent="1">
          <mxGeometry x="550" y="340" width="120" height="30" as="geometry" />
        </mxCell>
        <mxCell id="3GfHXLE6OEoNehkDiDL5-247" value="" style="curved=1;endArrow=none;html=1;fontFamily=Verdana;fontSize=8;entryX=1;entryY=0.5;endFill=0;dashed=1;" edge="1" parent="1">
          <mxGeometry width="50" height="50" relative="1" as="geometry">
            <mxPoint x="720" y="346" as="sourcePoint" />
            <mxPoint x="670" y="345" as="targetPoint" />
            <Array as="points">
              <mxPoint x="697" y="350" />
            </Array>
          </mxGeometry>
        </mxCell>
        <mxCell id="3GfHXLE6OEoNehkDiDL5-248" value="Random" style="text;html=1;strokeColor=none;fillColor=none;align=right;verticalAlign=middle;whiteSpace=wrap;rounded=0;comic=0;fontFamily=Verdana;fontSize=8;" vertex="1" parent="1">
          <mxGeometry x="720" y="340" width="40" height="15" as="geometry" />
        </mxCell>
        <mxCell id="3GfHXLE6OEoNehkDiDL5-251" value="" style="curved=1;endArrow=none;html=1;fontFamily=Verdana;fontSize=8;entryX=1;entryY=0.5;endFill=0;dashed=1;" edge="1" parent="1">
          <mxGeometry width="50" height="50" relative="1" as="geometry">
            <mxPoint x="730" y="370" as="sourcePoint" />
            <mxPoint x="671" y="357" as="targetPoint" />
            <Array as="points">
              <mxPoint x="698" y="362" />
            </Array>
          </mxGeometry>
        </mxCell>
        <mxCell id="3GfHXLE6OEoNehkDiDL5-252" value="Collision based" style="text;html=1;strokeColor=none;fillColor=none;align=right;verticalAlign=middle;whiteSpace=wrap;rounded=0;comic=0;fontFamily=Verdana;fontSize=8;" vertex="1" parent="1">
          <mxGeometry x="730" y="360" width="40" height="15" as="geometry" />
        </mxCell>
        <mxCell id="3GfHXLE6OEoNehkDiDL5-253" value="" style="curved=1;endArrow=none;html=1;fontFamily=Verdana;fontSize=8;entryX=1;entryY=0.5;endFill=0;dashed=1;" edge="1" parent="1">
          <mxGeometry width="50" height="50" relative="1" as="geometry">
            <mxPoint x="729" y="390" as="sourcePoint" />
            <mxPoint x="670" y="367" as="targetPoint" />
            <Array as="points">
              <mxPoint x="697" y="390" />
            </Array>
          </mxGeometry>
        </mxCell>
        <mxCell id="3GfHXLE6OEoNehkDiDL5-254" value="Failure based" style="text;html=1;strokeColor=none;fillColor=none;align=right;verticalAlign=middle;whiteSpace=wrap;rounded=0;comic=0;fontFamily=Verdana;fontSize=8;" vertex="1" parent="1">
          <mxGeometry x="727" y="384" width="40" height="15" as="geometry" />
        </mxCell>
        <mxCell id="3GfHXLE6OEoNehkDiDL5-255" value="Mapf with uncertainty" style="rounded=1;whiteSpace=wrap;html=1;comic=0;fontFamily=Verdana;fontSize=10;fillColor=#fafafa;" vertex="1" parent="1">
          <mxGeometry x="400" y="376.5" width="131.5" height="30" as="geometry" />
        </mxCell>
        <mxCell id="3GfHXLE6OEoNehkDiDL5-257" value="Robust Planning" style="rounded=1;whiteSpace=wrap;html=1;comic=0;fontFamily=Verdana;fontSize=10;fillColor=#FFFF66;" vertex="1" parent="1">
          <mxGeometry x="401" y="413" width="130" height="20" as="geometry" />
        </mxCell>
        <mxCell id="3GfHXLE6OEoNehkDiDL5-258" value="Reactive Planning" style="rounded=1;whiteSpace=wrap;html=1;comic=0;fontFamily=Verdana;fontSize=10;fillColor=#FFFF66;" vertex="1" parent="1">
          <mxGeometry x="401" y="438" width="130" height="20" as="geometry" />
        </mxCell>
        <mxCell id="3GfHXLE6OEoNehkDiDL5-259" value="Reactive approaches" style="rounded=1;whiteSpace=wrap;html=1;comic=0;fontFamily=Verdana;fontSize=10;fillColor=#FFFF66;" vertex="1" parent="1">
          <mxGeometry x="401.5" y="463" width="130" height="20" as="geometry" />
        </mxCell>
        <mxCell id="3GfHXLE6OEoNehkDiDL5-260" value="Robust Execution" style="rounded=1;whiteSpace=wrap;html=1;comic=0;fontFamily=Verdana;fontSize=10;fillColor=#FFFF66;" vertex="1" parent="1">
          <mxGeometry x="401.5" y="488" width="130" height="20" as="geometry" />
        </mxCell>
        <mxCell id="3GfHXLE6OEoNehkDiDL5-263" value="" style="curved=1;endArrow=none;html=1;fontFamily=Verdana;fontSize=8;endFill=0;dashed=1;exitX=0;exitY=0.25;exitDx=0;exitDy=0;" edge="1" parent="1">
          <mxGeometry width="50" height="50" relative="1" as="geometry">
            <mxPoint x="400" y="420" as="sourcePoint" />
            <mxPoint x="333" y="413" as="targetPoint" />
            <Array as="points" />
          </mxGeometry>
        </mxCell>
        <mxCell id="3GfHXLE6OEoNehkDiDL5-265" value="" style="curved=1;endArrow=none;html=1;fontFamily=Verdana;fontSize=8;endFill=0;dashed=1;" edge="1" parent="1">
          <mxGeometry width="50" height="50" relative="1" as="geometry">
            <mxPoint x="600" y="495" as="sourcePoint" />
            <mxPoint x="531" y="494.5" as="targetPoint" />
            <Array as="points" />
          </mxGeometry>
        </mxCell>
        <mxCell id="3GfHXLE6OEoNehkDiDL5-266" value="Minimum Communication Policy (MCP) (Acyclic Directed Graph or temporal plan graph)" style="text;html=1;strokeColor=none;fillColor=none;align=right;verticalAlign=middle;whiteSpace=wrap;rounded=0;comic=0;fontFamily=Verdana;fontSize=8;" vertex="1" parent="1">
          <mxGeometry x="590" y="483" width="110" height="15" as="geometry" />
        </mxCell>
        <mxCell id="3GfHXLE6OEoNehkDiDL5-267" value="k Robust MAPF" style="rounded=1;whiteSpace=wrap;html=1;comic=0;fontFamily=Verdana;fontSize=10;fillColor=#ffcc99;strokeColor=#000000;" vertex="1" parent="1">
          <mxGeometry x="240" y="399" width="93.5" height="30" as="geometry" />
        </mxCell>
        <mxCell id="3GfHXLE6OEoNehkDiDL5-268" value="" style="curved=1;endArrow=none;html=1;fontFamily=Verdana;fontSize=8;endFill=0;dashed=1;exitX=0;exitY=0.25;exitDx=0;exitDy=0;entryX=1;entryY=0.5;entryDx=0;entryDy=0;" edge="1" parent="1">
          <mxGeometry width="50" height="50" relative="1" as="geometry">
            <mxPoint x="240" y="406.5" as="sourcePoint" />
            <mxPoint x="180" y="387.5" as="targetPoint" />
            <Array as="points">
              <mxPoint x="210" y="385.5" />
            </Array>
          </mxGeometry>
        </mxCell>
        <mxCell id="3GfHXLE6OEoNehkDiDL5-269" value="A* based" style="text;html=1;strokeColor=none;fillColor=none;align=right;verticalAlign=middle;whiteSpace=wrap;rounded=0;comic=0;fontFamily=Verdana;fontSize=8;" vertex="1" parent="1">
          <mxGeometry x="70" y="376.5" width="110" height="15" as="geometry" />
        </mxCell>
        <mxCell id="3GfHXLE6OEoNehkDiDL5-270" value="" style="curved=1;endArrow=none;html=1;fontFamily=Verdana;fontSize=8;endFill=0;dashed=1;exitX=0;exitY=0.75;exitDx=0;exitDy=0;" edge="1" parent="1">
          <mxGeometry width="50" height="50" relative="1" as="geometry">
            <mxPoint x="237" y="413" as="sourcePoint" />
            <mxPoint x="180" y="415" as="targetPoint" />
            <Array as="points" />
          </mxGeometry>
        </mxCell>
        <mxCell id="3GfHXLE6OEoNehkDiDL5-271" value="CBS based" style="text;html=1;strokeColor=none;fillColor=none;align=right;verticalAlign=middle;whiteSpace=wrap;rounded=0;comic=0;fontFamily=Verdana;fontSize=8;" vertex="1" parent="1">
          <mxGeometry x="70" y="399" width="110" height="15" as="geometry" />
        </mxCell>
        <mxCell id="3GfHXLE6OEoNehkDiDL5-272" value="" style="curved=1;endArrow=none;html=1;fontFamily=Verdana;fontSize=8;endFill=0;dashed=1;exitX=0;exitY=0.75;exitDx=0;exitDy=0;" edge="1" parent="1" source="3GfHXLE6OEoNehkDiDL5-267">
          <mxGeometry width="50" height="50" relative="1" as="geometry">
            <mxPoint x="229" y="450" as="sourcePoint" />
            <mxPoint x="169" y="440" as="targetPoint" />
            <Array as="points">
              <mxPoint x="210" y="440" />
            </Array>
          </mxGeometry>
        </mxCell>
        <mxCell id="3GfHXLE6OEoNehkDiDL5-273" value="Prioritized planning based" style="text;html=1;strokeColor=none;fillColor=none;align=right;verticalAlign=middle;whiteSpace=wrap;rounded=0;comic=0;fontFamily=Verdana;fontSize=8;" vertex="1" parent="1">
          <mxGeometry x="49" y="429" width="110" height="15" as="geometry" />
        </mxCell>
        <mxCell id="3GfHXLE6OEoNehkDiDL5-274" value="Decentralised Planning" style="rounded=1;whiteSpace=wrap;html=1;comic=0;fontFamily=Verdana;fontSize=10;fillColor=#fafafa;" vertex="1" parent="1">
          <mxGeometry x="333.5" y="590" width="131.5" height="30" as="geometry" />
        </mxCell>
        <mxCell id="3GfHXLE6OEoNehkDiDL5-275" value="" style="curved=1;endArrow=none;html=1;fontFamily=Verdana;fontSize=10;entryX=0.5;entryY=0;endFill=0;" edge="1" parent="1">
          <mxGeometry width="50" height="50" relative="1" as="geometry">
            <mxPoint x="470" y="510" as="sourcePoint" />
            <mxPoint x="398.5" y="590" as="targetPoint" />
            <Array as="points">
              <mxPoint x="470" y="540" />
              <mxPoint x="370" y="550" />
            </Array>
          </mxGeometry>
        </mxCell>
        <mxCell id="3GfHXLE6OEoNehkDiDL5-278" value="" style="curved=1;endArrow=none;html=1;fontFamily=Verdana;fontSize=8;endFill=0;dashed=1;exitX=0;exitY=0.25;exitDx=0;exitDy=0;" edge="1" parent="1">
          <mxGeometry width="50" height="50" relative="1" as="geometry">
            <mxPoint x="401" y="470" as="sourcePoint" />
            <mxPoint x="340" y="470" as="targetPoint" />
            <Array as="points" />
          </mxGeometry>
        </mxCell>
        <mxCell id="3GfHXLE6OEoNehkDiDL5-279" value="PIBT time independent execution model" style="text;html=1;strokeColor=none;fillColor=none;align=right;verticalAlign=middle;whiteSpace=wrap;rounded=0;comic=0;fontFamily=Verdana;fontSize=8;" vertex="1" parent="1">
          <mxGeometry x="223.5" y="465.5" width="110" height="15" as="geometry" />
        </mxCell>
        <mxCell id="3GfHXLE6OEoNehkDiDL5-280" value="Communication" style="rounded=1;whiteSpace=wrap;html=1;comic=0;fontFamily=Verdana;fontSize=10;fillColor=#FFFF66;" vertex="1" parent="1">
          <mxGeometry x="333.5" y="625" width="130" height="20" as="geometry" />
        </mxCell>
        <mxCell id="3GfHXLE6OEoNehkDiDL5-281" value="No communication" style="rounded=1;whiteSpace=wrap;html=1;comic=0;fontFamily=Verdana;fontSize=10;fillColor=#FFFF66;" vertex="1" parent="1">
          <mxGeometry x="333.5" y="649" width="130" height="20" as="geometry" />
        </mxCell>
        <mxCell id="3GfHXLE6OEoNehkDiDL5-282" value="Reciprocal Velocity Obstacles" style="rounded=1;whiteSpace=wrap;html=1;comic=0;fontFamily=Verdana;fontSize=10;fillColor=#ffcc99;strokeColor=#000000;" vertex="1" parent="1">
          <mxGeometry x="170" y="640" width="113.5" height="34" as="geometry" />
        </mxCell>
        <mxCell id="3GfHXLE6OEoNehkDiDL5-283" value="" style="curved=1;endArrow=none;html=1;fontFamily=Verdana;fontSize=8;endFill=0;dashed=1;entryX=1;entryY=0.5;entryDx=0;entryDy=0;" edge="1" parent="1" target="3GfHXLE6OEoNehkDiDL5-282">
          <mxGeometry width="50" height="50" relative="1" as="geometry">
            <mxPoint x="330" y="660" as="sourcePoint" />
            <mxPoint x="282" y="655.5" as="targetPoint" />
            <Array as="points" />
          </mxGeometry>
        </mxCell>
        <mxCell id="3GfHXLE6OEoNehkDiDL5-284" value="" style="curved=1;endArrow=none;html=1;fontFamily=Verdana;fontSize=8;endFill=0;dashed=1;exitX=0;exitY=0.25;exitDx=0;exitDy=0;" edge="1" parent="1" source="3GfHXLE6OEoNehkDiDL5-282">
          <mxGeometry width="50" height="50" relative="1" as="geometry">
            <mxPoint x="169" y="661" as="sourcePoint" />
            <mxPoint x="130" y="642" as="targetPoint" />
            <Array as="points">
              <mxPoint x="139" y="640" />
            </Array>
          </mxGeometry>
        </mxCell>
        <mxCell id="3GfHXLE6OEoNehkDiDL5-285" value="Deadlock resolution with local mapf" style="text;html=1;strokeColor=none;fillColor=none;align=right;verticalAlign=middle;whiteSpace=wrap;rounded=0;comic=0;fontFamily=Verdana;fontSize=8;" vertex="1" parent="1">
          <mxGeometry x="14" y="630" width="110" height="15" as="geometry" />
        </mxCell>
        <mxCell id="3GfHXLE6OEoNehkDiDL5-286" value="" style="curved=1;endArrow=none;html=1;fontFamily=Verdana;fontSize=8;endFill=0;dashed=1;entryX=1;entryY=0.5;entryDx=0;entryDy=0;" edge="1" parent="1">
          <mxGeometry width="50" height="50" relative="1" as="geometry">
            <mxPoint x="510" y="636" as="sourcePoint" />
            <mxPoint x="465" y="636" as="targetPoint" />
            <Array as="points" />
          </mxGeometry>
        </mxCell>
        <mxCell id="3GfHXLE6OEoNehkDiDL5-287" value="COBRA token passing with trajectories" style="text;html=1;strokeColor=none;fillColor=none;align=right;verticalAlign=middle;whiteSpace=wrap;rounded=0;comic=0;fontFamily=Verdana;fontSize=8;" vertex="1" parent="1">
          <mxGeometry x="520" y="627.5" width="110" height="15" as="geometry" />
        </mxCell>
        <mxCell id="3GfHXLE6OEoNehkDiDL5-288" value="" style="curved=1;endArrow=none;html=1;fontFamily=Verdana;fontSize=8;endFill=0;dashed=1;" edge="1" parent="1">
          <mxGeometry width="50" height="50" relative="1" as="geometry">
            <mxPoint x="530" y="660" as="sourcePoint" />
            <mxPoint x="470" y="640" as="targetPoint" />
            <Array as="points" />
          </mxGeometry>
        </mxCell>
        <mxCell id="3GfHXLE6OEoNehkDiDL5-289" value="walk, stop, count and swap" style="text;html=1;strokeColor=none;fillColor=none;align=right;verticalAlign=middle;whiteSpace=wrap;rounded=0;comic=0;fontFamily=Verdana;fontSize=8;" vertex="1" parent="1">
          <mxGeometry x="520" y="659" width="110" height="15" as="geometry" />
        </mxCell>
        <mxCell id="3GfHXLE6OEoNehkDiDL5-290" value="" style="curved=1;endArrow=none;html=1;fontFamily=Verdana;fontSize=10;endFill=0;exitX=0.5;exitY=1;exitDx=0;exitDy=0;" edge="1" parent="1">
          <mxGeometry width="50" height="50" relative="1" as="geometry">
            <mxPoint x="418" y="669" as="sourcePoint" />
            <mxPoint x="500" y="770" as="targetPoint" />
            <Array as="points">
              <mxPoint x="414" y="684" />
              <mxPoint x="510" y="720" />
            </Array>
          </mxGeometry>
        </mxCell>
        <mxCell id="3GfHXLE6OEoNehkDiDL5-291" value="Anonymous MAPF / TAPF" style="rounded=1;whiteSpace=wrap;html=1;comic=0;fontFamily=Verdana;fontSize=10;fillColor=#fafafa;" vertex="1" parent="1">
          <mxGeometry x="430" y="770" width="131.5" height="30" as="geometry" />
        </mxCell>
        <mxCell id="3GfHXLE6OEoNehkDiDL5-292" value="" style="curved=1;endArrow=none;html=1;fontFamily=Verdana;fontSize=8;endFill=0;dashed=1;exitX=0;exitY=0.25;exitDx=0;exitDy=0;" edge="1" parent="1">
          <mxGeometry width="50" height="50" relative="1" as="geometry">
            <mxPoint x="430" y="777" as="sourcePoint" />
            <mxPoint x="390" y="770" as="targetPoint" />
            <Array as="points">
              <mxPoint x="410" y="770" />
            </Array>
          </mxGeometry>
        </mxCell>
        <mxCell id="3GfHXLE6OEoNehkDiDL5-293" value="Max flow assignment + CBS (CBM)" style="text;html=1;strokeColor=none;fillColor=none;align=right;verticalAlign=middle;whiteSpace=wrap;rounded=0;comic=0;fontFamily=Verdana;fontSize=8;" vertex="1" parent="1">
          <mxGeometry x="273.5" y="760" width="110" height="15" as="geometry" />
        </mxCell>
        <mxCell id="3GfHXLE6OEoNehkDiDL5-295" value="" style="curved=1;endArrow=none;html=1;fontFamily=Verdana;fontSize=8;endFill=0;dashed=1;exitX=0;exitY=0.5;exitDx=0;exitDy=0;" edge="1" parent="1" source="3GfHXLE6OEoNehkDiDL5-291">
          <mxGeometry width="50" height="50" relative="1" as="geometry">
            <mxPoint x="440" y="787" as="sourcePoint" />
            <mxPoint x="380" y="800" as="targetPoint" />
            <Array as="points">
              <mxPoint x="420" y="780" />
            </Array>
          </mxGeometry>
        </mxCell>
        <mxCell id="3GfHXLE6OEoNehkDiDL5-296" value="Consider all target assignments, evaluate with CBS (CBS-TA)" style="text;html=1;strokeColor=none;fillColor=none;align=right;verticalAlign=middle;whiteSpace=wrap;rounded=0;comic=0;fontFamily=Verdana;fontSize=8;" vertex="1" parent="1">
          <mxGeometry x="260" y="800" width="110" height="15" as="geometry" />
        </mxCell>
        <mxCell id="3GfHXLE6OEoNehkDiDL5-297" value="" style="curved=1;endArrow=none;html=1;fontFamily=Verdana;fontSize=8;endFill=0;dashed=1;exitX=0;exitY=0.5;exitDx=0;exitDy=0;" edge="1" parent="1" source="3GfHXLE6OEoNehkDiDL5-282">
          <mxGeometry width="50" height="50" relative="1" as="geometry">
            <mxPoint x="180" y="659" as="sourcePoint" />
            <mxPoint x="90" y="670" as="targetPoint" />
            <Array as="points">
              <mxPoint x="149" y="650" />
            </Array>
          </mxGeometry>
        </mxCell>
        <mxCell id="3GfHXLE6OEoNehkDiDL5-298" value="Optimal Reciprocal Collision Avoidance (ORCA)" style="text;html=1;strokeColor=none;fillColor=none;align=right;verticalAlign=middle;whiteSpace=wrap;rounded=0;comic=0;fontFamily=Verdana;fontSize=8;" vertex="1" parent="1">
          <mxGeometry x="10" y="674" width="110" height="15" as="geometry" />
        </mxCell>
        <mxCell id="3GfHXLE6OEoNehkDiDL5-299" value="Planning with Robot Dynamics" style="rounded=1;whiteSpace=wrap;html=1;comic=0;fontFamily=Verdana;fontSize=10;fillColor=#fafafa;" vertex="1" parent="1">
          <mxGeometry x="313.5" y="900" width="131.5" height="30" as="geometry" />
        </mxCell>
        <mxCell id="3GfHXLE6OEoNehkDiDL5-300" value="" style="curved=1;endArrow=none;html=1;fontFamily=Verdana;fontSize=10;entryX=0.5;entryY=0;endFill=0;exitX=0.452;exitY=1.033;exitDx=0;exitDy=0;exitPerimeter=0;entryDx=0;entryDy=0;" edge="1" parent="1" source="3GfHXLE6OEoNehkDiDL5-291" target="3GfHXLE6OEoNehkDiDL5-299">
          <mxGeometry width="50" height="50" relative="1" as="geometry">
            <mxPoint x="448.5" y="815" as="sourcePoint" />
            <mxPoint x="377" y="895" as="targetPoint" />
            <Array as="points">
              <mxPoint x="448.5" y="845" />
              <mxPoint x="348.5" y="855" />
            </Array>
          </mxGeometry>
        </mxCell>
        <mxCell id="3GfHXLE6OEoNehkDiDL5-302" value="During Planning" style="rounded=1;whiteSpace=wrap;html=1;comic=0;fontFamily=Verdana;fontSize=10;fillColor=#FFFF66;" vertex="1" parent="1">
          <mxGeometry x="315" y="934" width="130" height="20" as="geometry" />
        </mxCell>
        <mxCell id="3GfHXLE6OEoNehkDiDL5-304" value="During Execution" style="rounded=1;whiteSpace=wrap;html=1;comic=0;fontFamily=Verdana;fontSize=10;fillColor=#FFFF66;" vertex="1" parent="1">
          <mxGeometry x="314.5" y="959" width="130" height="20" as="geometry" />
        </mxCell>
        <mxCell id="3GfHXLE6OEoNehkDiDL5-305" value="Sampling Based Planning" style="rounded=1;whiteSpace=wrap;html=1;comic=0;fontFamily=Verdana;fontSize=10;fillColor=#FFFF66;" vertex="1" parent="1">
          <mxGeometry x="314" y="983" width="130" height="20" as="geometry" />
        </mxCell>
        <mxCell id="3GfHXLE6OEoNehkDiDL5-306" value="Mapf for large agents (LA-MAPF)" style="rounded=1;whiteSpace=wrap;html=1;comic=0;fontFamily=Verdana;fontSize=10;fillColor=#ffcc99;strokeColor=#000000;" vertex="1" parent="1">
          <mxGeometry x="510" y="920" width="113.5" height="34" as="geometry" />
        </mxCell>
        <mxCell id="3GfHXLE6OEoNehkDiDL5-307" value="" style="curved=1;endArrow=none;html=1;fontFamily=Verdana;fontSize=8;endFill=0;dashed=1;entryX=1;entryY=0.5;entryDx=0;entryDy=0;exitX=0;exitY=0.5;exitDx=0;exitDy=0;" edge="1" parent="1" source="3GfHXLE6OEoNehkDiDL5-306" target="3GfHXLE6OEoNehkDiDL5-302">
          <mxGeometry width="50" height="50" relative="1" as="geometry">
            <mxPoint x="505" y="943.6" as="sourcePoint" />
            <mxPoint x="460" y="943.6" as="targetPoint" />
            <Array as="points" />
          </mxGeometry>
        </mxCell>
        <mxCell id="3GfHXLE6OEoNehkDiDL5-309" value="CBS SYM" style="text;html=1;strokeColor=none;fillColor=none;align=right;verticalAlign=middle;whiteSpace=wrap;rounded=0;comic=0;fontFamily=Verdana;fontSize=8;" vertex="1" parent="1">
          <mxGeometry x="660" y="900" width="50" height="15" as="geometry" />
        </mxCell>
        <mxCell id="3GfHXLE6OEoNehkDiDL5-310" value="CBS ASYM" style="text;html=1;strokeColor=none;fillColor=none;align=right;verticalAlign=middle;whiteSpace=wrap;rounded=0;comic=0;fontFamily=Verdana;fontSize=8;" vertex="1" parent="1">
          <mxGeometry x="670" y="930" width="50" height="15" as="geometry" />
        </mxCell>
        <mxCell id="3GfHXLE6OEoNehkDiDL5-311" value="CBS MAX" style="text;html=1;strokeColor=none;fillColor=none;align=right;verticalAlign=middle;whiteSpace=wrap;rounded=0;comic=0;fontFamily=Verdana;fontSize=8;" vertex="1" parent="1">
          <mxGeometry x="661" y="954" width="50" height="15" as="geometry" />
        </mxCell>
        <mxCell id="3GfHXLE6OEoNehkDiDL5-312" value="" style="curved=1;endArrow=none;html=1;fontFamily=Verdana;fontSize=8;endFill=0;dashed=1;entryX=1;entryY=0.25;entryDx=0;entryDy=0;exitX=0;exitY=0.75;exitDx=0;exitDy=0;" edge="1" parent="1" source="3GfHXLE6OEoNehkDiDL5-309" target="3GfHXLE6OEoNehkDiDL5-306">
          <mxGeometry width="50" height="50" relative="1" as="geometry">
            <mxPoint x="667.5" y="920" as="sourcePoint" />
            <mxPoint x="622.5" y="920" as="targetPoint" />
            <Array as="points" />
          </mxGeometry>
        </mxCell>
        <mxCell id="3GfHXLE6OEoNehkDiDL5-313" value="" style="curved=1;endArrow=none;html=1;fontFamily=Verdana;fontSize=8;endFill=0;dashed=1;entryX=1;entryY=0.5;entryDx=0;entryDy=0;" edge="1" parent="1">
          <mxGeometry width="50" height="50" relative="1" as="geometry">
            <mxPoint x="670" y="937.1" as="sourcePoint" />
            <mxPoint x="625" y="937.1" as="targetPoint" />
            <Array as="points" />
          </mxGeometry>
        </mxCell>
        <mxCell id="3GfHXLE6OEoNehkDiDL5-314" value="" style="curved=1;endArrow=none;html=1;fontFamily=Verdana;fontSize=8;endFill=0;dashed=1;" edge="1" parent="1">
          <mxGeometry width="50" height="50" relative="1" as="geometry">
            <mxPoint x="670" y="960" as="sourcePoint" />
            <mxPoint x="623.5" y="945" as="targetPoint" />
            <Array as="points" />
          </mxGeometry>
        </mxCell>
        <mxCell id="3GfHXLE6OEoNehkDiDL5-315" value="Continuous time Mapf" style="rounded=1;whiteSpace=wrap;html=1;comic=0;fontFamily=Verdana;fontSize=10;fillColor=#ffcc99;strokeColor=#000000;" vertex="1" parent="1">
          <mxGeometry x="146.5" y="915" width="113.5" height="34" as="geometry" />
        </mxCell>
        <mxCell id="3GfHXLE6OEoNehkDiDL5-316" value="" style="curved=1;endArrow=none;html=1;fontFamily=Verdana;fontSize=8;endFill=0;dashed=1;entryX=1;entryY=0.5;entryDx=0;entryDy=0;exitX=0;exitY=0.5;exitDx=0;exitDy=0;" edge="1" parent="1" source="3GfHXLE6OEoNehkDiDL5-302">
          <mxGeometry width="50" height="50" relative="1" as="geometry">
            <mxPoint x="306" y="934" as="sourcePoint" />
            <mxPoint x="260" y="931" as="targetPoint" />
            <Array as="points" />
          </mxGeometry>
        </mxCell>
        <mxCell id="3GfHXLE6OEoNehkDiDL5-317" value="" style="curved=1;endArrow=none;html=1;fontFamily=Verdana;fontSize=8;endFill=0;dashed=1;exitX=0;exitY=0.25;exitDx=0;exitDy=0;" edge="1" parent="1">
          <mxGeometry width="50" height="50" relative="1" as="geometry">
            <mxPoint x="145" y="927" as="sourcePoint" />
            <mxPoint x="105" y="920" as="targetPoint" />
            <Array as="points">
              <mxPoint x="120" y="927" />
            </Array>
          </mxGeometry>
        </mxCell>
        <mxCell id="3GfHXLE6OEoNehkDiDL5-318" value="Safe Interval Path Planning (SIPP)&lt;br&gt;for single agent search" style="text;html=1;strokeColor=none;fillColor=none;align=right;verticalAlign=middle;whiteSpace=wrap;rounded=0;comic=0;fontFamily=Verdana;fontSize=8;" vertex="1" parent="1">
          <mxGeometry x="10" y="890" width="110" height="15" as="geometry" />
        </mxCell>
        <mxCell id="3GfHXLE6OEoNehkDiDL5-319" value="" style="curved=1;endArrow=none;html=1;fontFamily=Verdana;fontSize=8;endFill=0;dashed=1;" edge="1" parent="1">
          <mxGeometry width="50" height="50" relative="1" as="geometry">
            <mxPoint x="147" y="937" as="sourcePoint" />
            <mxPoint x="100" y="950" as="targetPoint" />
            <Array as="points">
              <mxPoint x="127" y="937" />
            </Array>
          </mxGeometry>
        </mxCell>
        <mxCell id="3GfHXLE6OEoNehkDiDL5-321" value="CBS SIPP" style="text;html=1;strokeColor=none;fillColor=none;align=right;verticalAlign=middle;whiteSpace=wrap;rounded=0;comic=0;fontFamily=Verdana;fontSize=8;" vertex="1" parent="1">
          <mxGeometry x="-11" y="941.5" width="110" height="15" as="geometry" />
        </mxCell>
        <mxCell id="3GfHXLE6OEoNehkDiDL5-322" value="" style="curved=1;endArrow=none;html=1;fontFamily=Verdana;fontSize=8;endFill=0;dashed=1;entryX=1;entryY=0.25;entryDx=0;entryDy=0;exitX=0;exitY=0.5;exitDx=0;exitDy=0;" edge="1" parent="1" source="3GfHXLE6OEoNehkDiDL5-323">
          <mxGeometry width="50" height="50" relative="1" as="geometry">
            <mxPoint x="519.5" y="995" as="sourcePoint" />
            <mxPoint x="444" y="969" as="targetPoint" />
            <Array as="points" />
          </mxGeometry>
        </mxCell>
        <mxCell id="3GfHXLE6OEoNehkDiDL5-323" value="Temporal Plan Graph based" style="rounded=1;whiteSpace=wrap;html=1;comic=0;fontFamily=Verdana;fontSize=10;fillColor=#ffcc99;strokeColor=#000000;" vertex="1" parent="1">
          <mxGeometry x="531" y="976" width="113.5" height="34" as="geometry" />
        </mxCell>
        <mxCell id="3GfHXLE6OEoNehkDiDL5-325" value="" style="curved=1;endArrow=none;html=1;fontFamily=Verdana;fontSize=8;endFill=0;dashed=1;entryX=1;entryY=0.5;entryDx=0;entryDy=0;" edge="1" parent="1">
          <mxGeometry width="50" height="50" relative="1" as="geometry">
            <mxPoint x="690" y="1000" as="sourcePoint" />
            <mxPoint x="644.5" y="992.6" as="targetPoint" />
            <Array as="points" />
          </mxGeometry>
        </mxCell>
        <mxCell id="3GfHXLE6OEoNehkDiDL5-326" value="MAPF POST" style="text;html=1;strokeColor=none;fillColor=none;align=right;verticalAlign=middle;whiteSpace=wrap;rounded=0;comic=0;fontFamily=Verdana;fontSize=8;" vertex="1" parent="1">
          <mxGeometry x="695" y="988" width="50" height="15" as="geometry" />
        </mxCell>
      </root>
    </mxGraphModel>
  </diagram>
</mxfile>
